<?xml version="1.0" encoding="UTF-8"?>
<svg xmlns="http://www.w3.org/2000/svg" xmlns:xlink="http://www.w3.org/1999/xlink" viewBox="0 0 33.32 15.3">
  <defs>
    <style>
      .cls-1 {
        fill: #fdc80a;
      }

      .cls-2 {
        isolation: isolate;
      }

      .cls-3 {
        fill: url(#linear-gradient);
      }

      .cls-3, .cls-4 {
        mix-blend-mode: overlay;
      }

      .cls-4 {
        fill: url(#linear-gradient-2);
      }
    </style>
    <linearGradient id="linear-gradient" x1="25.9" y1="3.67" x2="25.3" y2="13.75" gradientUnits="userSpaceOnUse">
      <stop offset="0" stop-color="#fff"/>
      <stop offset=".07" stop-color="#fff" stop-opacity=".85"/>
      <stop offset=".21" stop-color="#fff" stop-opacity=".59"/>
      <stop offset=".34" stop-color="#fff" stop-opacity=".38"/>
      <stop offset=".45" stop-color="#fff" stop-opacity=".22"/>
      <stop offset=".56" stop-color="#fff" stop-opacity=".1"/>
      <stop offset=".65" stop-color="#fff" stop-opacity=".03"/>
      <stop offset=".72" stop-color="#fff" stop-opacity="0"/>
    </linearGradient>
    <linearGradient id="linear-gradient-2" x1="5.68" y1="4.79" x2="5.24" y2="12.04" xlink:href="#linear-gradient"/>
  </defs>
  <g class="cls-2">
    <g id="Layer_2" data-name="Layer 2">
      <g id="Layer_1-2" data-name="Layer 1">
        <g>
          <path class="cls-1" d="M33.05,7.94c-5.3.64-6.46,1.8-7.09,7.09-.04.35-.55.35-.59,0-.64-5.3-1.8-6.46-7.09-7.09-.35-.04-.35-.55,0-.59,5.3-.64,6.46-1.8,7.09-7.09.04-.35.55-.35.59,0,.64,5.3,1.8,6.46,7.09,7.09.35.04.35.55,0,.59Z"/>
          <path class="cls-3" d="M31.73,7.83c-4.56.49-5.4,1.34-5.89,5.89-.02.21-.33.21-.35,0-.49-4.56-1.34-5.4-5.89-5.89-.21-.02-.21-.33,0-.35,4.56-.49,5.4-1.34,5.89-5.89.02-.21.33-.21.35,0,.49,4.56,1.34,5.4,5.89,5.89.21.02.21.33,0,.35Z"/>
        </g>
        <g>
          <path class="cls-1" d="M10.82,7.86c-3.81.46-4.65,1.3-5.11,5.11-.03.25-.39.25-.42,0-.46-3.81-1.3-4.65-5.11-5.11-.25-.03-.25-.39,0-.42,3.81-.46,4.65-1.3,5.11-5.11.03-.25.39-.25.42,0,.46,3.81,1.3,4.65,5.11,5.11.25.03.25.39,0,.42Z"/>
          <path class="cls-4" d="M9.87,7.78c-3.28.35-3.89.96-4.24,4.24-.02.15-.24.15-.25,0-.35-3.28-.96-3.89-4.24-4.24-.15-.02-.15-.24,0-.25,3.28-.35,3.89-.96,4.24-4.24.02-.15.24-.15.25,0,.35,3.28.96,3.89,4.24,4.24.15.02.15.24,0,.25Z"/>
        </g>
      </g>
    </g>
  </g>
</svg>